<svg version="1.1" xmlns="http://www.w3.org/2000/svg" xmlns:xlink="http://www.w3.org/1999/xlink" width="65.58916" height="20.5" viewBox="0,0,65.58916,20.5"><g transform="translate(-333.5,-172.625)"><g data-paper-data="{&quot;isPaintingLayer&quot;:true}" fill-rule="nonzero" stroke="#000000" stroke-width="2.5" stroke-linecap="butt" stroke-linejoin="miter" stroke-miterlimit="10" stroke-dasharray="" stroke-dashoffset="0" style="mix-blend-mode: normal"><path d="M357.5,179.375c0,-3.03757 2.46244,-5.5 5.5,-5.5c3.03756,0 5.5,2.46243 5.5,5.5c0,3.03757 -2.46244,5.5 -5.5,5.5c-3.03756,0 -5.5,-2.46243 -5.5,-5.5z" fill="#ffe082"/><path d="M334.75,186.375c0,-3.03757 2.46244,-5.5 5.5,-5.5c3.03756,0 5.5,2.46243 5.5,5.5c0,3.03757 -2.46244,5.5 -5.5,5.5c-3.03756,0 -5.5,-2.46243 -5.5,-5.5z" fill="#ffe082"/><path d="M335.70833,186.375v-7h37.75v7z" fill="#000000"/><path d="M375.04167,184.38136v-2.52472l9.75,-3.23164l-1.06217,2.2731l9.50284,2.01893l-9.497,2.13181l0.80633,2.51365z" fill="#ffea00"/></g></g></svg>