<svg version="1.1" xmlns="http://www.w3.org/2000/svg" xmlns:xlink="http://www.w3.org/1999/xlink" width="17.71274" height="42.05004" viewBox="0,0,17.71274,42.05004"><g transform="translate(-346.59807,-161.73303)"><g data-paper-data="{&quot;isPaintingLayer&quot;:true}" fill-rule="nonzero" stroke="#000000" stroke-width="2.5" stroke-linecap="butt" stroke-linejoin="miter" stroke-miterlimit="10" stroke-dasharray="" stroke-dashoffset="0" style="mix-blend-mode: normal"><path d="M352.64231,178.82191c-2.97031,-0.63567 -4.86291,-3.5589 -4.22724,-6.5292c0.63567,-2.9703 3.55889,-4.86291 6.5292,-4.22724c2.97031,0.63567 4.86291,3.5589 4.22724,6.5292c-0.63567,2.9703 -3.55889,4.86291 -6.5292,4.22724z" fill="#ffe082"/><path d="M354.72644,202.53307c-2.97031,-0.63567 -4.86291,-3.5589 -4.22724,-6.5292c0.63567,-2.9703 3.55889,-4.86291 6.5292,-4.22724c2.97031,0.63567 4.86291,3.5589 4.22724,6.5292c-0.63567,2.9703 -3.55889,4.86291 -6.5292,4.22724z" fill="#ffe082"/><path d="M354.92699,201.59596l-6.84501,-1.46488l7.89991,-36.91414l6.84501,1.46488z" fill="#000000"/></g></g></svg>